<svg xmlns="http://www.w3.org/2000/svg" viewBox="0 0 180 180">
  <defs>
    <linearGradient id="bg" x1="0" y1="0" x2="1" y2="1">
      <stop offset="0%" stop-color="#f97316"/>
      <stop offset="100%" stop-color="#dc2626"/>
    </linearGradient>
  </defs>
  <rect width="180" height="180" rx="40" fill="url(#bg)"/>
  <g fill="white" transform="translate(90,90) scale(0.3) translate(-256,-256)">
    <rect x="120" y="200" width="36" height="180" rx="4"/>
    <rect x="200" y="200" width="36" height="180" rx="4"/>
    <rect x="276" y="200" width="36" height="180" rx="4"/>
    <rect x="356" y="200" width="36" height="180" rx="4"/>
    <path d="M120 210 Q138 140 200 170 Q238 120 276 170 Q314 140 356 170 Q392 140 392 210" fill="none" stroke="white" stroke-width="28" stroke-linecap="round" stroke-opacity="0.9"/>
    <rect x="100" y="370" width="312" height="24" rx="6"/>
    <rect x="100" y="155" width="312" height="16" rx="4"/>
  </g>
  <circle cx="90" cy="97" r="6" fill="#f97316" stroke="white" stroke-width="2"/>
  <circle cx="90" cy="97" r="2" fill="white"/>
</svg>
